<svg xmlns="http://www.w3.org/2000/svg" width="342" height="102" fill="none" viewBox="0 0 342 102"><path fill="#FEE469" stroke="#111" stroke-width="2" d="M27.95 24.408C52.368 9.815 77.617 7.646 138.846 15.3c13.345 1.67 28.215.807 43.856-1.093 10.609-1.29 21.619-3.063 32.77-4.86 5.279-.85 10.589-1.705 15.904-2.517 33.173-5.066 66.607-8.433 94.823 1.37 6.203 2.156 10.187 5.544 12.381 9.648 2.198 4.114 2.662 9.07 1.589 14.467-2.152 10.826-10.45 23.203-22.602 33.303-12.036 10.002-32.751 16.263-61.063 21.242-22.264 3.916-49.076 7.018-79.815 10.575-8.262.956-16.807 1.944-25.624 2.991-53.565-3.902-81.569-2.28-100.319-1.106l-1 .063c-17.904 1.123-27.16 1.704-42.979-3.676C-5.108 68.153 3.6 38.96 27.95 24.408l-.513-.858z"/></svg>