<svg aria-hidden="true" style="position: absolute; width: 0; height: 0; overflow: hidden;" version="1.1" xmlns="http://www.w3.org/2000/svg" xmlns:xlink="http://www.w3.org/1999/xlink">
  <defs>
    <symbol id="icon-close" viewBox="0 0 32 32">
      <path d="M4.688 27.312c-1.528-1.476-2.747-3.241-3.586-5.194s-1.28-4.052-1.298-6.176 0.386-4.231 1.191-6.198c0.804-1.966 1.993-3.753 3.495-5.255s3.289-2.69 5.255-3.495c1.966-0.804 4.073-1.209 6.198-1.191s4.224 0.46 6.176 1.298c1.952 0.839 3.718 2.057 5.194 3.586 2.915 3.018 4.527 7.059 4.491 11.254s-1.719 8.208-4.686 11.175c-2.966 2.967-6.98 4.649-11.175 4.686s-8.237-1.576-11.254-4.491zM6.944 25.056c2.402 2.402 5.659 3.751 9.056 3.751s6.654-1.349 9.056-3.751 3.751-5.659 3.751-9.056c0-3.397-1.349-6.654-3.751-9.056s-5.659-3.751-9.056-3.751c-3.397 0-6.654 1.349-9.056 3.751s-3.751 5.659-3.751 9.056c0 3.397 1.349 6.654 3.751 9.056zM22.784 11.472l-4.528 4.528 4.528 4.528-2.256 2.256-4.528-4.528-4.528 4.528-2.256-2.256 4.528-4.528-4.528-4.528 2.256-2.256 4.528 4.528 4.528-4.528 2.256 2.256z"></path>
    </symbol>
    <symbol id="icon-burger" viewBox="0 0 32 32">
      <path d="M26.667 13.333h-21.333c-1.467 0-2.667 1.2-2.667 2.667s1.2 2.667 2.667 2.667h21.333c1.467 0 2.667-1.2 2.667-2.667s-1.2-2.667-2.667-2.667z"></path>
      <path d="M5.333 10.667h16c1.467 0 2.667-1.2 2.667-2.667s-1.2-2.667-2.667-2.667h-16c-1.467 0-2.667 1.2-2.667 2.667s1.2 2.667 2.667 2.667z"></path>
      <path d="M21.333 21.333h-16c-1.467 0-2.667 1.2-2.667 2.667s1.2 2.667 2.667 2.667h16c1.467 0 2.667-1.2 2.667-2.667s-1.2-2.667-2.667-2.667z"></path>
    </symbol>
</defs>
</svg>
