<svg aria-hidden="true" style="position: absolute; width: 0; height: 0; overflow: hidden;" version="1.1" xmlns="http://www.w3.org/2000/svg" xmlns:xlink="http://www.w3.org/1999/xlink">
  <defs>
    <symbol id="icon-close" viewBox="0 0 32 32">
      <path d="M4.688 27.312c-1.528-1.476-2.747-3.241-3.586-5.194s-1.28-4.052-1.298-6.176 0.386-4.231 1.191-6.198c0.804-1.966 1.993-3.753 3.495-5.255s3.289-2.69 5.255-3.495c1.966-0.804 4.073-1.209 6.198-1.191s4.224 0.46 6.176 1.298c1.952 0.839 3.718 2.057 5.194 3.586 2.915 3.018 4.527 7.059 4.491 11.254s-1.719 8.208-4.686 11.175c-2.966 2.967-6.98 4.649-11.175 4.686s-8.237-1.576-11.254-4.491zM6.944 25.056c2.402 2.402 5.659 3.751 9.056 3.751s6.654-1.349 9.056-3.751 3.751-5.659 3.751-9.056c0-3.397-1.349-6.654-3.751-9.056s-5.659-3.751-9.056-3.751c-3.397 0-6.654 1.349-9.056 3.751s-3.751 5.659-3.751 9.056c0 3.397 1.349 6.654 3.751 9.056zM22.784 11.472l-4.528 4.528 4.528 4.528-2.256 2.256-4.528-4.528-4.528 4.528-2.256-2.256 4.528-4.528-4.528-4.528 2.256-2.256 4.528 4.528 4.528-4.528 2.256 2.256z"></path>
    </symbol>
    <symbol id="icon-burger" viewBox="0 0 32 32">
      <path d="M26.667 13.333h-21.333c-1.467 0-2.667 1.2-2.667 2.667s1.2 2.667 2.667 2.667h21.333c1.467 0 2.667-1.2 2.667-2.667s-1.2-2.667-2.667-2.667z"></path>
      <path d="M5.333 10.667h16c1.467 0 2.667-1.2 2.667-2.667s-1.2-2.667-2.667-2.667h-16c-1.467 0-2.667 1.2-2.667 2.667s1.2 2.667 2.667 2.667z"></path>
      <path d="M21.333 21.333h-16c-1.467 0-2.667 1.2-2.667 2.667s1.2 2.667 2.667 2.667h16c1.467 0 2.667-1.2 2.667-2.667s-1.2-2.667-2.667-2.667z"></path>
    </symbol>
    <symbol id="icon-qoute" viewBox="0 0 39 32">
<path d="M16.709 0.644c0.39 1.17 0.585 2.146 0.585 2.926 0 0.702-0.117 1.638-0.351 2.809-5.227 0-7.841 2.692-7.841 8.075 0 1.95 1.014 3.043 3.043 3.277 2.965 0.234 4.447 2.146 4.447 5.734 0 2.731-0.663 4.837-1.989 6.32-1.248 1.404-3.55 2.107-6.905 2.107-4.603 0-6.905-3.121-6.905-9.362s1.248-11.43 3.745-15.565c2.497-4.213 6.554-6.32 12.171-6.32zM37.891 0.644c0.39 1.17 0.585 2.146 0.585 2.926 0 0.702-0.117 1.638-0.351 2.809-5.227 0-7.841 2.692-7.841 8.075 0 1.95 1.014 3.043 3.043 3.277 2.965 0.234 4.447 2.146 4.447 5.734 0 2.731-0.663 4.837-1.989 6.32-1.248 1.404-3.55 2.107-6.905 2.107-4.603 0-6.905-3.121-6.905-9.362s1.248-11.43 3.745-15.565c2.497-4.213 6.554-6.32 12.171-6.32z"></path>
</symbol>
<symbol id="icon-reviews" viewBox="0 0 122 32">
<path stroke-width="1.1636" stroke-miterlimit="4" stroke-linecap="butt" stroke-linejoin="miter" style="fill: var(--color1, #fee469)" d="M15.572 0.582h94.237c6.191 0 11.209 5.019 11.209 11.21v2.357c0 1.417-0.225 2.824-0.666 4.17l-1.521 4.639c-1.142 3.482-3.868 6.216-7.348 7.367-1.171 0.388-2.397 0.585-3.631 0.585h-98.141c-1.345 0-2.67-0.328-3.86-0.956-2.389-1.261-4.012-3.609-4.346-6.29l-0.706-5.659c-0.141-1.132-0.137-2.277 0.012-3.408l0.14-1.060c0.314-2.379 1.262-4.63 2.745-6.517l0.84-1.069c0.587-0.747 1.251-1.429 1.982-2.035l2.262-1.875 2.901-0.882c1.262-0.383 2.573-0.578 3.891-0.578z"></path>
</symbol>
<symbol id="icon-warning" viewBox="0 0 32 32">
<path fill="#fcb91f" style="fill: var(--color1, #fcb91f)" d="M14.843 3.115l-14.665 25.399c-0.117 0.203-0.178 0.434-0.178 0.668s0.062 0.465 0.179 0.668c0.117 0.203 0.285 0.372 0.488 0.489s0.433 0.18 0.667 0.181h29.33c0.234-0.001 0.465-0.063 0.667-0.181s0.371-0.286 0.488-0.489c0.117-0.203 0.179-0.433 0.179-0.668s-0.061-0.465-0.178-0.668l-14.665-25.399c-0.118-0.202-0.287-0.37-0.49-0.487s-0.433-0.178-0.667-0.178c-0.234 0-0.464 0.061-0.667 0.178s-0.372 0.284-0.49 0.487z"></path>
<path fill="#111" style="fill: var(--color2, #111)" d="M14.113 24.804c0-0.373 0.111-0.738 0.318-1.048s0.502-0.552 0.847-0.695c0.345-0.143 0.724-0.18 1.090-0.107s0.702 0.252 0.966 0.516 0.444 0.6 0.516 0.966c0.073 0.366 0.035 0.745-0.107 1.090s-0.385 0.639-0.695 0.847-0.675 0.318-1.048 0.318c-0.251 0.011-0.501-0.031-0.734-0.122s-0.446-0.23-0.623-0.407-0.316-0.39-0.407-0.623c-0.091-0.234-0.133-0.484-0.122-0.734zM14.799 21.873l-0.478-9.433h3.308l-0.459 9.433h-2.371z"></path>
</symbol>
</defs>
</svg>
