<svg width="342" height="102" viewBox="0 0 342 102" fill="none" xmlns="http://www.w3.org/2000/svg">
<path d="M27.9502 24.4081C52.3676 9.81517 77.6172 7.64625 138.846 15.3004C152.191 16.9694 167.061 16.1072 182.702 14.2067C193.311 12.9175 204.321 11.1439 215.472 9.34741C220.751 8.49704 226.061 7.64155 231.376 6.8299C264.549 1.76383 297.983 -1.60344 326.199 8.20054C332.402 10.3558 336.386 13.7439 338.58 17.8481C340.778 21.9624 341.242 26.9177 340.169 32.3151C338.017 43.1412 329.719 55.5175 317.567 65.6176C305.531 75.6203 284.816 81.8811 256.504 86.8603C234.24 90.7757 207.428 93.8781 176.689 97.4348C168.427 98.3907 159.882 99.3795 151.065 100.426C97.4999 96.5242 69.4963 98.1465 50.746 99.3204C50.4096 99.3415 50.0762 99.3624 49.7458 99.3831C31.842 100.506 22.5865 101.087 6.7675 95.7065C-5.10814 68.1532 3.59945 38.9601 27.9502 24.4082L27.4372 23.5498L27.9502 24.4081Z" fill="#FEE469" stroke="#111111" stroke-width="2"/>
</svg>
