<svg width="204" height="60" fill="none" xmlns="http://www.w3.org/2000/svg">
  <path d="M7.556 59.38h188.888c3.806 0 6.93-3.096 6.93-6.88v-45c0-3.784-3.124-6.88-6.93-6.88H7.556C3.75.62.626 3.715.626 7.5v45c0 3.784 3.124 6.88 6.93 6.88Z" fill="#111" stroke="#fff"/>
  <mask id="a" fill="#fff">
    <path d="M196.444 1.202c3.499 0 6.345 2.826 6.345 6.298v45c0 3.472-2.846 6.298-6.345 6.298H7.556c-3.499 0-6.345-2.826-6.345-6.298v-45c0-3.472 2.846-6.298 6.345-6.298h188.888Zm0-1.202H7.556C3.402 0 0 3.377 0 7.5v45C0 56.623 3.402 60 7.556 60h188.888c4.154 0 7.556-3.377 7.556-7.5v-45c0-4.123-3.402-7.5-7.556-7.5Z"/>
  </mask>
  <path d="M196.444 1.202c3.499 0 6.345 2.826 6.345 6.298v45c0 3.472-2.846 6.298-6.345 6.298H7.556c-3.499 0-6.345-2.826-6.345-6.298v-45c0-3.472 2.846-6.298 6.345-6.298h188.888Zm0-1.202H7.556C3.402 0 0 3.377 0 7.5v45C0 56.623 3.402 60 7.556 60h188.888c4.154 0 7.556-3.377 7.556-7.5v-45c0-4.123-3.402-7.5-7.556-7.5Z" fill="#A6A6A6"/>
  <path d="M196.444-.037c4.196 0 7.598 3.386 7.598 7.537h-2.506c0-2.794-2.29-5.06-5.092-5.06V-.037Zm7.598 7.537v45h-2.506v-45h2.506Zm0 45c0 4.151-3.402 7.536-7.598 7.536V57.56c2.802 0 5.092-2.266 5.092-5.06h2.506Zm-7.598 7.536H7.556V57.56h188.888v2.476Zm-188.888 0c-4.196 0-7.598-3.385-7.598-7.536h2.506c0 2.794 2.29 5.06 5.092 5.06v2.476ZM-.042 52.5v-45h2.506v45H-.042Zm0-45c0-4.151 3.402-7.537 7.598-7.537V2.44c-2.802 0-5.092 2.266-5.092 5.06H-.042ZM7.556-.037h188.888V2.44H7.556V-.037Zm188.888 1.275H7.556v-2.476h188.888v2.476Zm-188.888 0c-3.457 0-6.303 2.818-6.303 6.262h-2.506c0-4.802 3.958-8.738 8.809-8.738v2.476ZM1.253 7.5v45h-2.506v-45h2.506Zm0 45c0 3.444 2.846 6.262 6.303 6.262v2.476c-4.851 0-8.809-3.936-8.809-8.738h2.506Zm6.303 6.262h188.888v2.476H7.556v-2.476Zm188.888 0c3.457 0 6.303-2.818 6.303-6.262h2.506c0 4.802-3.958 8.738-8.809 8.738v-2.476Zm6.303-6.262v-45h2.506v45h-2.506Zm0-45c0-3.444-2.846-6.262-6.303-6.262v-2.476c4.851 0 8.809 3.936 8.809 8.738h-2.506Z" fill="#fff" mask="url(#a)"/>
  <path d="M71.653 15.366c0 1.252-.378 2.255-1.122 3.003-.856.887-1.97 1.334-3.336 1.334-1.305 0-2.42-.454-3.333-1.349-.917-.907-1.374-2.02-1.374-3.354 0-1.333.457-2.447 1.373-3.347.915-.902 2.03-1.356 3.334-1.356.65 0 1.27.134 1.86.381.59.25 1.07.587 1.418 1.003l-.79.792c-.606-.711-1.432-1.062-2.488-1.062-.952 0-1.777.33-2.478.996-.693.667-1.04 1.532-1.04 2.593s.347 1.933 1.04 2.6c.7.659 1.526.996 2.478.996 1.011 0 1.861-.337 2.532-1.003.441-.44.693-1.048.759-1.824h-3.29v-1.084h4.39c.052.234.067.461.067.68ZM78.617 11.608h-4.124v2.85h3.718v1.084h-3.718v2.85h4.124v1.104h-5.29v-8.992h5.29v1.104ZM83.532 19.496h-1.167v-7.888h-2.53v-1.104h6.229v1.104h-2.531v7.888ZM90.57 19.496v-8.992h1.166v8.992H90.57ZM96.902 19.496h-1.158v-7.888h-2.539v-1.104h6.235v1.104h-2.538v7.888ZM111.231 18.34c-.893.909-2 1.363-3.32 1.363-1.328 0-2.435-.454-3.328-1.364-.892-.907-1.336-2.02-1.336-3.339 0-1.318.444-2.432 1.336-3.34.893-.909 2-1.363 3.328-1.363 1.313 0 2.419.454 3.313 1.371.899.915 1.343 2.021 1.343 3.332 0 1.318-.444 2.432-1.336 3.34Zm-5.785-.754c.672.673 1.49 1.01 2.465 1.01.967 0 1.792-.337 2.457-1.01.671-.673 1.011-1.538 1.011-2.586 0-1.048-.34-1.912-1.011-2.586-.665-.673-1.49-1.01-2.457-1.01-.975 0-1.793.337-2.465 1.01-.671.674-1.011 1.538-1.011 2.586 0 1.048.34 1.913 1.011 2.586ZM114.204 19.496v-8.992h1.417l4.405 6.993h.051l-.051-1.728v-5.265h1.165v8.992h-1.216l-4.613-7.339h-.051l.051 1.737v5.602h-1.158Z" fill="#fff" stroke="#fff" stroke-width=".16" stroke-miterlimit="10"/>
  <mask id="b" fill="#fff">
    <path d="M102.96 32.629c-3.55 0-6.448 2.681-6.448 6.38 0 3.67 2.899 6.38 6.448 6.38 3.557 0 6.456-2.71 6.456-6.38 0-3.699-2.899-6.38-6.456-6.38Zm0 10.247c-1.947 0-3.623-1.596-3.623-3.867 0-2.3 1.676-3.868 3.623-3.868 1.948 0 3.631 1.568 3.631 3.868 0 2.271-1.683 3.867-3.631 3.867ZM88.89 32.629c-3.557 0-6.449 2.681-6.449 6.38 0 3.67 2.892 6.38 6.449 6.38 3.555 0 6.448-2.71 6.448-6.38 0-3.699-2.893-6.38-6.448-6.38Zm0 10.247c-1.95 0-3.63-1.596-3.63-3.867 0-2.3 1.68-3.868 3.63-3.868 1.947 0 3.623 1.568 3.623 3.868 0 2.271-1.676 3.867-3.623 3.867Zm-16.743-8.292v2.712h6.522c-.19 1.515-.7 2.628-1.483 3.405-.952.937-2.435 1.978-5.04 1.978-4.013 0-7.156-3.216-7.156-7.2 0-3.985 3.143-7.2 7.157-7.2 2.17 0 3.75.842 4.915 1.933l1.924-1.91c-1.63-1.546-3.798-2.733-6.84-2.733-5.504 0-10.13 4.446-10.13 9.91s4.627 9.91 10.13 9.91c2.976 0 5.21-.968 6.967-2.783 1.8-1.787 2.361-4.3 2.361-6.328a9 9 0 0 0-.147-1.694h-9.18Zm68.464 2.102c-.53-1.427-2.168-4.057-5.504-4.057-3.305 0-6.058 2.585-6.058 6.38 0 3.574 2.724 6.38 6.375 6.38 2.953 0 4.657-1.788 5.357-2.828l-2.191-1.45c-.731 1.062-1.726 1.765-3.166 1.765-1.429 0-2.455-.651-3.112-1.933l8.596-3.531-.297-.726Zm-8.764 2.125c-.074-2.46 1.925-3.72 3.356-3.72 1.122 0 2.074.556 2.392 1.353l-5.748 2.367ZM124.86 45h2.826V26.25h-2.826V45Zm-4.628-10.95h-.094c-.635-.746-1.846-1.421-3.38-1.421-3.218 0-6.161 2.805-6.161 6.401 0 3.576 2.943 6.358 6.161 6.358 1.534 0 2.745-.68 3.38-1.45h.094v.916c0 2.44-1.313 3.75-3.43 3.75-1.727 0-2.798-1.238-3.24-2.278l-2.457 1.018c.708 1.691 2.584 3.772 5.697 3.772 3.313 0 6.109-1.935 6.109-6.643V33.017h-2.679v1.033ZM117 42.876c-1.947 0-3.577-1.618-3.577-3.846 0-2.248 1.63-3.889 3.577-3.889 1.919 0 3.432 1.64 3.432 3.889 0 2.227-1.513 3.846-3.432 3.846Zm36.841-16.626h-6.758V45h2.818v-7.104h3.94c3.13 0 6.199-2.248 6.199-5.824 0-3.574-3.077-5.822-6.199-5.822Zm.074 9.038h-4.014v-6.43h4.014c2.104 0 3.305 1.735 3.305 3.214 0 1.451-1.201 3.215-3.305 3.215Zm17.421-2.695c-2.036 0-4.154.893-5.024 2.87l2.5 1.041c.539-1.04 1.529-1.378 2.575-1.378 1.462 0 2.945.872 2.967 2.412v.196c-.51-.292-1.601-.725-2.944-.725-2.694 0-5.438 1.472-5.438 4.218 0 2.513 2.206 4.131 4.686 4.131 1.896 0 2.943-.85 3.6-1.837h.096v1.449h2.722v-7.192c0-3.325-2.501-5.185-5.74-5.185Zm-.34 10.275c-.922 0-2.206-.454-2.206-1.588 0-1.451 1.602-2.008 2.988-2.008 1.241 0 1.823.272 2.576.63-.221 1.736-1.726 2.966-3.358 2.966Zm15.997-9.864-3.239 8.128h-.097l-3.349-8.128h-3.039l5.032 11.358-2.871 6.321h2.945l7.754-17.68h-3.136ZM161.589 45h2.826V26.25h-2.826V45Z"/>
  </mask>
  <path d="M102.96 32.629c-3.55 0-6.448 2.681-6.448 6.38 0 3.67 2.899 6.38 6.448 6.38 3.557 0 6.456-2.71 6.456-6.38 0-3.699-2.899-6.38-6.456-6.38Zm0 10.247c-1.947 0-3.623-1.596-3.623-3.867 0-2.3 1.676-3.868 3.623-3.868 1.948 0 3.631 1.568 3.631 3.868 0 2.271-1.683 3.867-3.631 3.867ZM88.89 32.629c-3.557 0-6.449 2.681-6.449 6.38 0 3.67 2.892 6.38 6.449 6.38 3.555 0 6.448-2.71 6.448-6.38 0-3.699-2.893-6.38-6.448-6.38Zm0 10.247c-1.95 0-3.63-1.596-3.63-3.867 0-2.3 1.68-3.868 3.63-3.868 1.947 0 3.623 1.568 3.623 3.868 0 2.271-1.676 3.867-3.623 3.867Zm-16.743-8.292v2.712h6.522c-.19 1.515-.7 2.628-1.483 3.405-.952.937-2.435 1.978-5.04 1.978-4.013 0-7.156-3.216-7.156-7.2 0-3.985 3.143-7.2 7.157-7.2 2.17 0 3.75.842 4.915 1.933l1.924-1.91c-1.63-1.546-3.798-2.733-6.84-2.733-5.504 0-10.13 4.446-10.13 9.91s4.627 9.91 10.13 9.91c2.976 0 5.21-.968 6.967-2.783 1.8-1.787 2.361-4.3 2.361-6.328a9 9 0 0 0-.147-1.694h-9.18Zm68.464 2.102c-.53-1.427-2.168-4.057-5.504-4.057-3.305 0-6.058 2.585-6.058 6.38 0 3.574 2.724 6.38 6.375 6.38 2.953 0 4.657-1.788 5.357-2.828l-2.191-1.45c-.731 1.062-1.726 1.765-3.166 1.765-1.429 0-2.455-.651-3.112-1.933l8.596-3.531-.297-.726Zm-8.764 2.125c-.074-2.46 1.925-3.72 3.356-3.72 1.122 0 2.074.556 2.392 1.353l-5.748 2.367ZM124.86 45h2.826V26.25h-2.826V45Zm-4.628-10.95h-.094c-.635-.746-1.846-1.421-3.38-1.421-3.218 0-6.161 2.805-6.161 6.401 0 3.576 2.943 6.358 6.161 6.358 1.534 0 2.745-.68 3.38-1.45h.094v.916c0 2.44-1.313 3.75-3.43 3.75-1.727 0-2.798-1.238-3.24-2.278l-2.457 1.018c.708 1.691 2.584 3.772 5.697 3.772 3.313 0 6.109-1.935 6.109-6.643V33.017h-2.679v1.033ZM117 42.876c-1.947 0-3.577-1.618-3.577-3.846 0-2.248 1.63-3.889 3.577-3.889 1.919 0 3.432 1.64 3.432 3.889 0 2.227-1.513 3.846-3.432 3.846Zm36.841-16.626h-6.758V45h2.818v-7.104h3.94c3.13 0 6.199-2.248 6.199-5.824 0-3.574-3.077-5.822-6.199-5.822Zm.074 9.038h-4.014v-6.43h4.014c2.104 0 3.305 1.735 3.305 3.214 0 1.451-1.201 3.215-3.305 3.215Zm17.421-2.695c-2.036 0-4.154.893-5.024 2.87l2.5 1.041c.539-1.04 1.529-1.378 2.575-1.378 1.462 0 2.945.872 2.967 2.412v.196c-.51-.292-1.601-.725-2.944-.725-2.694 0-5.438 1.472-5.438 4.218 0 2.513 2.206 4.131 4.686 4.131 1.896 0 2.943-.85 3.6-1.837h.096v1.449h2.722v-7.192c0-3.325-2.501-5.185-5.74-5.185Zm-.34 10.275c-.922 0-2.206-.454-2.206-1.588 0-1.451 1.602-2.008 2.988-2.008 1.241 0 1.823.272 2.576.63-.221 1.736-1.726 2.966-3.358 2.966Zm15.997-9.864-3.239 8.128h-.097l-3.349-8.128h-3.039l5.032 11.358-2.871 6.321h2.945l7.754-17.68h-3.136ZM161.589 45h2.826V26.25h-2.826V45Z" fill="#fff" stroke="#fff" stroke-width="2" mask="url(#b)"/>
  <path d="M15.695 46.59c0 .538.097.957.247 1.27l18-17.86-17.997-17.858c-.152.314-.25.735-.25 1.276V46.59Z" fill="url(#c)" stroke="#fff"/>
  <path d="M40.95 24.358 35.267 30l5.68 5.645 7.122-4.015c.94-.532 1.267-1.145 1.267-1.63 0-.483-.326-1.094-1.265-1.622h-.002l-7.117-4.02Z" fill="url(#d)" stroke="#fff"/>
  <mask id="f" fill="#fff">
    <path d="M40.987 36.336 34.605 30 15.769 48.7c.7.73 1.843.819 3.143.087l22.075-12.451Z"/>
  </mask>
  <path d="M40.987 36.336 34.605 30 15.769 48.7c.7.73 1.843.819 3.143.087l22.075-12.451Z" fill="url(#e)"/>
  <path d="m34.605 30-.888-.874.888-.881.888.881-.888.874ZM15.769 48.7l-.91.851-.837-.873.859-.852.888.873Zm3.143.087.62 1.076-.62-1.075ZM40.099 37.21l-6.382-6.335 1.776-1.748 6.382 6.336-1.776 1.747Zm-4.606-6.335-18.837 18.7-1.775-1.748 18.836-18.7 1.776 1.748ZM16.677 47.848c.16.167.607.43 1.614-.137l1.24 2.153c-1.593.896-3.432.982-4.673-.313l1.82-1.703Zm1.613-.136L40.366 35.26l1.242 2.151-22.075 12.452-1.242-2.151Z" fill="#fff" mask="url(#f)"/>
  <path d="m16.75 11.404 17.855 17.718 5.36-5.321-21.36-12.049h-.002c-.784-.437-1.402-.496-1.853-.348Z" fill="url(#g)" stroke="#fff"/>
  <defs>
    <linearGradient id="c" x1="32.943" y1="46.935" x2="7.77" y2="21.576" gradientUnits="userSpaceOnUse">
      <stop stop-color="#00A0FF"/>
      <stop offset=".007" stop-color="#00A1FF"/>
      <stop offset=".26" stop-color="#00BEFF"/>
      <stop offset=".512" stop-color="#00D2FF"/>
      <stop offset=".76" stop-color="#00DFFF"/>
      <stop offset="1" stop-color="#00E3FF"/>
    </linearGradient>
    <linearGradient id="d" x1="51.127" y1="29.998" x2="14.562" y2="29.998" gradientUnits="userSpaceOnUse">
      <stop stop-color="#FFE000"/>
      <stop offset=".409" stop-color="#FFBD00"/>
      <stop offset=".775" stop-color="orange"/>
      <stop offset="1" stop-color="#FF9C00"/>
    </linearGradient>
    <linearGradient id="e" x1="37.517" y1="26.556" x2="3.38" y2="-7.833" gradientUnits="userSpaceOnUse">
      <stop stop-color="#FF3A44"/>
      <stop offset="1" stop-color="#C31162"/>
    </linearGradient>
    <linearGradient id="g" x1="11.027" y1="59.736" x2="26.271" y2="44.379" gradientUnits="userSpaceOnUse">
      <stop stop-color="#32A071"/>
      <stop offset=".069" stop-color="#2DA771"/>
      <stop offset=".476" stop-color="#15CF74"/>
      <stop offset=".801" stop-color="#06E775"/>
      <stop offset="1" stop-color="#00F076"/>
    </linearGradient>
  </defs>
</svg>
